<svg width="270" height="208" viewBox="0 0 270 208" fill="none" xmlns="http://www.w3.org/2000/svg">
<g clip-path="url(#clip0_9_57)">
<path d="M214.654 88.6354C210.051 88.6354 205.581 88.9727 201.303 89.7923L184.257 54.4929H189.811C198.552 54.4929 206.819 52.0149 213.09 47.3263L218.972 42.9807C221.646 40.9821 221.708 37.7192 219.114 35.6596C216.52 33.6 212.25 33.5647 209.578 35.5633L203.696 39.8626C199.956 42.6592 195.024 44.1008 189.812 44.1008H174.544C172.333 44.1008 170.263 45.0402 169.003 46.4389C167.744 47.8383 167.452 49.6761 168.226 51.2709L174.713 64.6909C174.671 64.6902 174.629 64.7886 174.588 64.7886C174.573 64.7886 174.559 64.8835 174.544 64.8835H88.2399L76.5847 49.7558L89.2444 46.3648C92.3621 45.5397 94.2478 43.2127 93.7056 40.7077C93.1624 38.2034 90.3504 36.4812 87.0538 36.4812H49.9957C44.8025 36.4812 40.576 39.6028 40.576 43.6034C40.576 49.7974 47.11 54.7707 55.1403 54.7707C56.7499 54.7707 58.3461 54.5303 59.8856 54.1236L63.5753 53.1309L75.3968 68.3688L66.3171 89.3489C63.3388 88.8854 60.2795 88.5938 57.151 88.5169C41.3341 88.1269 26.527 92.769 15.5885 101.469C5.0727 109.834 -0.454096 120.861 0.0288021 132.52C0.956829 154.922 24.4632 173.03 53.5423 173.745C54.1475 173.759 54.7473 173.767 55.348 173.767C70.4653 173.767 84.5854 169.114 95.1057 160.747C103.616 153.977 108.856 145.243 110.29 136.237H121.126C123.463 137.623 126.487 138.755 129.794 138.755C137.165 138.755 143.161 134.158 143.161 128.479C143.161 126.636 142.52 124.919 141.414 123.42L179.221 74.0231L188.71 93.6204C171.234 100.797 159.307 114.979 159.307 131.27C159.307 154.781 184.135 173.909 214.654 173.909C245.173 173.909 270 154.782 270 131.272C270 107.762 245.173 88.6354 214.654 88.6354ZM162.746 75.2756L129.828 118.289C129.816 118.289 129.805 118.247 129.794 118.247C129.756 118.247 129.719 118.313 129.68 118.314L96.29 75.2762L162.746 75.2756ZM84.5224 80.1304L118.135 123.437C117.579 124.2 117.155 125.154 116.865 125.847H110.277C107.947 111.299 95.8314 98.7454 79.1107 92.5938L84.5224 80.1304ZM66.9465 125.847C66.4942 125.154 65.9745 124.79 65.3926 124.3L73.3645 105.855C83.0045 109.959 90.0564 117.534 92.0995 125.847H66.9465ZM82.187 151.108C74.7997 156.983 64.8216 160.142 54.1169 159.875C34.4935 159.393 18.6316 147.184 18.0057 132.067C17.6793 124.191 21.4085 116.749 28.5081 111.103C35.6104 105.454 45.1415 102.345 55.3462 102.345C55.7554 102.345 56.1645 102.352 56.5773 102.362C57.928 102.395 59.258 102.49 60.5691 102.631L52.5064 121.266C46.5992 122.331 42.1821 126.413 42.1821 131.284C42.1821 136.962 48.1783 141.538 55.5476 141.538C60.5403 141.538 64.8954 139.702 67.1902 136.238H92.0986C90.7938 141.78 87.4045 146.958 82.187 151.108ZM214.654 160.056C194.053 160.056 177.292 147.143 177.292 131.273C177.292 120.929 184.415 111.845 195.078 106.771L207.756 132.947C208.767 135.037 211.34 136.327 214.075 136.327C214.858 136.327 215.655 136.222 216.432 135.998C219.922 134.995 221.695 132.002 220.392 129.314L207.651 103.005C209.92 102.672 212.259 102.49 214.654 102.49C235.255 102.49 252.015 115.403 252.015 131.273C252.015 147.143 235.256 160.056 214.654 160.056Z" fill="black"/>
</g>
<defs>
<clipPath id="clip0_9_57">
<rect width="270" height="208" fill="white"/>
</clipPath>
</defs>
</svg>
